<svg xmlns="http://www.w3.org/2000/svg" viewBox="0 0 1800 1200" width="1800" height="1200"><rect width="1800" height="1200" fill="#E8E3DA"/><g><circle cx="208" cy="268" r="1.9" fill="#1D1D1B" opacity="0.26"/><circle cx="640" cy="893" r="1.0" fill="#1D1D1B" opacity="0.27"/><circle cx="207" cy="269" r="3.3" fill="#1D1D1B" opacity="0.22"/><circle cx="791" cy="113" r="2.4" fill="#1D1D1B" opacity="0.27"/><circle cx="1054" cy="423" r="1.9" fill="#1D1D1B" opacity="0.12"/><circle cx="280" cy="476" r="3.3" fill="#1D1D1B" opacity="0.24"/><circle cx="1313" cy="215" r="1.1" fill="#1D1D1B" opacity="0.24"/><circle cx="280" cy="1190" r="2.2" fill="#1D1D1B" opacity="0.28"/><circle cx="767" cy="27" r="1.2" fill="#1D1D1B" opacity="0.10"/><circle cx="324" cy="919" r="3.0" fill="#1D1D1B" opacity="0.24"/><circle cx="1201" cy="1185" r="3.2" fill="#1D1D1B" opacity="0.12"/><circle cx="1572" cy="378" r="2.2" fill="#1D1D1B" opacity="0.14"/><circle cx="1446" cy="610" r="1.8" fill="#1D1D1B" opacity="0.25"/><circle cx="361" cy="50" r="3.2" fill="#1D1D1B" opacity="0.28"/><circle cx="1015" cy="1153" r="3.2" fill="#1D1D1B" opacity="0.13"/><circle cx="678" cy="180" r="1.4" fill="#1D1D1B" opacity="0.28"/><circle cx="545" cy="683" r="2.2" fill="#1D1D1B" opacity="0.12"/><circle cx="983" cy="1160" r="3.1" fill="#1D1D1B" opacity="0.14"/><circle cx="729" cy="1084" r="1.5" fill="#1D1D1B" opacity="0.26"/><circle cx="225" cy="737" r="3.0" fill="#1D1D1B" opacity="0.09"/><circle cx="1202" cy="150" r="3.0" fill="#1D1D1B" opacity="0.22"/><circle cx="1031" cy="884" r="2.7" fill="#1D1D1B" opacity="0.14"/><circle cx="645" cy="830" r="1.6" fill="#1D1D1B" opacity="0.23"/><circle cx="1790" cy="777" r="2.6" fill="#1D1D1B" opacity="0.09"/><circle cx="1788" cy="242" r="2.4" fill="#1D1D1B" opacity="0.25"/><circle cx="625" cy="936" r="3.0" fill="#1D1D1B" opacity="0.12"/><circle cx="1330" cy="112" r="2.2" fill="#1D1D1B" opacity="0.09"/><circle cx="1268" cy="325" r="1.9" fill="#1D1D1B" opacity="0.12"/><circle cx="1788" cy="664" r="1.3" fill="#1D1D1B" opacity="0.10"/><circle cx="1727" cy="217" r="3.2" fill="#1D1D1B" opacity="0.29"/><circle cx="860" cy="234" r="2.8" fill="#1D1D1B" opacity="0.29"/><circle cx="1648" cy="88" r="3.3" fill="#1D1D1B" opacity="0.23"/><circle cx="27" cy="1054" r="2.0" fill="#1D1D1B" opacity="0.29"/><circle cx="1002" cy="949" r="3.2" fill="#1D1D1B" opacity="0.24"/><circle cx="843" cy="110" r="3.1" fill="#1D1D1B" opacity="0.21"/><circle cx="929" cy="1019" r="3.3" fill="#1D1D1B" opacity="0.19"/><circle cx="837" cy="1069" r="2.6" fill="#1D1D1B" opacity="0.29"/><circle cx="887" cy="1044" r="2.2" fill="#1D1D1B" opacity="0.19"/><circle cx="1542" cy="357" r="1.2" fill="#1D1D1B" opacity="0.25"/><circle cx="378" cy="964" r="1.6" fill="#1D1D1B" opacity="0.21"/><circle cx="1" cy="336" r="1.6" fill="#1D1D1B" opacity="0.25"/><circle cx="1697" cy="592" r="1.0" fill="#1D1D1B" opacity="0.27"/><circle cx="1633" cy="906" r="2.7" fill="#1D1D1B" opacity="0.20"/><circle cx="957" cy="215" r="1.1" fill="#1D1D1B" opacity="0.22"/><circle cx="1549" cy="559" r="1.8" fill="#1D1D1B" opacity="0.10"/><circle cx="1450" cy="847" r="2.0" fill="#1D1D1B" opacity="0.09"/><circle cx="1361" cy="651" r="3.0" fill="#1D1D1B" opacity="0.14"/><circle cx="724" cy="905" r="2.0" fill="#1D1D1B" opacity="0.29"/><circle cx="1458" cy="799" r="3.0" fill="#1D1D1B" opacity="0.20"/><circle cx="1434" cy="584" r="2.0" fill="#1D1D1B" opacity="0.26"/><circle cx="561" cy="637" r="2.3" fill="#1D1D1B" opacity="0.21"/><circle cx="1189" cy="1074" r="1.1" fill="#1D1D1B" opacity="0.12"/><circle cx="95" cy="906" r="3.0" fill="#1D1D1B" opacity="0.25"/><circle cx="176" cy="993" r="1.7" fill="#1D1D1B" opacity="0.11"/><circle cx="57" cy="535" r="1.6" fill="#1D1D1B" opacity="0.14"/><circle cx="339" cy="121" r="2.6" fill="#1D1D1B" opacity="0.22"/><circle cx="1449" cy="467" r="3.2" fill="#1D1D1B" opacity="0.18"/><circle cx="1626" cy="671" r="2.2" fill="#1D1D1B" opacity="0.16"/><circle cx="818" cy="259" r="2.4" fill="#1D1D1B" opacity="0.24"/><circle cx="1230" cy="731" r="3.2" fill="#1D1D1B" opacity="0.26"/><circle cx="1350" cy="599" r="1.5" fill="#1D1D1B" opacity="0.15"/><circle cx="916" cy="1053" r="1.9" fill="#1D1D1B" opacity="0.25"/><circle cx="774" cy="302" r="1.0" fill="#1D1D1B" opacity="0.19"/><circle cx="607" cy="81" r="1.9" fill="#1D1D1B" opacity="0.18"/><circle cx="1772" cy="236" r="3.4" fill="#1D1D1B" opacity="0.12"/><circle cx="474" cy="783" r="3.0" fill="#1D1D1B" opacity="0.23"/><circle cx="300" cy="672" r="2.0" fill="#1D1D1B" opacity="0.29"/><circle cx="73" cy="1060" r="3.3" fill="#1D1D1B" opacity="0.12"/><circle cx="143" cy="1196" r="1.1" fill="#1D1D1B" opacity="0.10"/><circle cx="1169" cy="646" r="1.1" fill="#1D1D1B" opacity="0.10"/><circle cx="1226" cy="564" r="3.2" fill="#1D1D1B" opacity="0.30"/><circle cx="1359" cy="65" r="2.5" fill="#1D1D1B" opacity="0.20"/><circle cx="206" cy="843" r="2.1" fill="#1D1D1B" opacity="0.12"/><circle cx="1712" cy="523" r="2.3" fill="#1D1D1B" opacity="0.11"/><circle cx="430" cy="510" r="1.1" fill="#1D1D1B" opacity="0.25"/><circle cx="1462" cy="484" r="2.2" fill="#1D1D1B" opacity="0.09"/><circle cx="1507" cy="1132" r="2.4" fill="#1D1D1B" opacity="0.30"/><circle cx="675" cy="1140" r="2.1" fill="#1D1D1B" opacity="0.14"/><circle cx="134" cy="1003" r="3.3" fill="#1D1D1B" opacity="0.26"/><circle cx="997" cy="805" r="2.2" fill="#1D1D1B" opacity="0.12"/><circle cx="80" cy="1071" r="3.3" fill="#1D1D1B" opacity="0.27"/><circle cx="21" cy="1192" r="3.3" fill="#1D1D1B" opacity="0.12"/><circle cx="557" cy="753" r="1.6" fill="#1D1D1B" opacity="0.14"/><circle cx="696" cy="132" r="2.0" fill="#1D1D1B" opacity="0.25"/><circle cx="1105" cy="792" r="1.8" fill="#1D1D1B" opacity="0.10"/><circle cx="1232" cy="578" r="1.8" fill="#1D1D1B" opacity="0.17"/><circle cx="1319" cy="1070" r="3.2" fill="#1D1D1B" opacity="0.25"/><circle cx="812" cy="775" r="2.4" fill="#1D1D1B" opacity="0.27"/><circle cx="175" cy="51" r="2.6" fill="#1D1D1B" opacity="0.08"/><circle cx="783" cy="145" r="1.1" fill="#1D1D1B" opacity="0.11"/></g><g><rect x="0.0" y="0.0" width="117.8" height="1049.6" fill="#CDC6BE" opacity="0.87"/><rect x="163.6" y="446.2" width="117.8" height="753.8" fill="#1D1D1B" opacity="0.69"/><rect x="327.3" y="0.0" width="117.8" height="108.7" fill="#1D1D1B" opacity="0.62"/><rect x="490.9" y="941.9" width="117.8" height="258.1" fill="#1D1D1B" opacity="0.67"/><rect x="654.5" y="0.0" width="117.8" height="214.5" fill="#CDC6BE" opacity="0.49"/><rect x="818.2" y="295.7" width="117.8" height="904.3" fill="#1D1D1B" opacity="0.90"/><rect x="981.8" y="0.0" width="117.8" height="908.4" fill="#1D1D1B" opacity="0.53"/><rect x="1145.5" y="115.0" width="117.8" height="1085.0" fill="#1D1D1B" opacity="0.72"/><rect x="1309.1" y="0.0" width="117.8" height="515.3" fill="#CDC6BE" opacity="0.79"/><rect x="1472.7" y="515.5" width="117.8" height="684.5" fill="#1D1D1B" opacity="0.73"/><rect x="1636.4" y="0.0" width="117.8" height="105.7" fill="#1D1D1B" opacity="0.55"/></g><rect x="1" y="1" width="1798" height="1198" fill="none" stroke="#1D1D1B" stroke-width="2" opacity="0.5"/></svg>