<svg xmlns="http://www.w3.org/2000/svg" viewBox="0 0 1800 1200" width="1800" height="1200"><rect width="1800" height="1200" fill="#DCD5C9"/><g><circle cx="1278" cy="166" r="1.7" fill="#1D1D1B" opacity="0.13"/><circle cx="497" cy="1163" r="2.3" fill="#1D1D1B" opacity="0.22"/><circle cx="1289" cy="1068" r="1.8" fill="#1D1D1B" opacity="0.20"/><circle cx="246" cy="1086" r="1.4" fill="#1D1D1B" opacity="0.21"/><circle cx="1161" cy="64" r="3.3" fill="#1D1D1B" opacity="0.25"/><circle cx="428" cy="377" r="2.0" fill="#1D1D1B" opacity="0.20"/><circle cx="1341" cy="742" r="2.1" fill="#1D1D1B" opacity="0.16"/><circle cx="1498" cy="1038" r="1.2" fill="#1D1D1B" opacity="0.16"/><circle cx="1636" cy="552" r="1.6" fill="#1D1D1B" opacity="0.29"/><circle cx="496" cy="330" r="2.5" fill="#1D1D1B" opacity="0.19"/><circle cx="451" cy="823" r="1.0" fill="#1D1D1B" opacity="0.18"/><circle cx="767" cy="866" r="2.0" fill="#1D1D1B" opacity="0.09"/><circle cx="774" cy="951" r="1.3" fill="#1D1D1B" opacity="0.20"/><circle cx="684" cy="424" r="1.9" fill="#1D1D1B" opacity="0.26"/><circle cx="1376" cy="513" r="2.2" fill="#1D1D1B" opacity="0.22"/><circle cx="473" cy="1107" r="1.7" fill="#1D1D1B" opacity="0.17"/><circle cx="172" cy="584" r="2.5" fill="#1D1D1B" opacity="0.27"/><circle cx="380" cy="110" r="1.9" fill="#1D1D1B" opacity="0.26"/><circle cx="956" cy="155" r="1.7" fill="#1D1D1B" opacity="0.28"/><circle cx="292" cy="663" r="1.6" fill="#1D1D1B" opacity="0.20"/><circle cx="200" cy="1072" r="2.6" fill="#1D1D1B" opacity="0.13"/><circle cx="258" cy="727" r="2.1" fill="#1D1D1B" opacity="0.19"/><circle cx="616" cy="645" r="1.5" fill="#1D1D1B" opacity="0.11"/><circle cx="717" cy="904" r="1.4" fill="#1D1D1B" opacity="0.27"/><circle cx="159" cy="427" r="1.1" fill="#1D1D1B" opacity="0.09"/><circle cx="467" cy="685" r="1.8" fill="#1D1D1B" opacity="0.19"/><circle cx="723" cy="59" r="2.4" fill="#1D1D1B" opacity="0.22"/><circle cx="389" cy="861" r="3.2" fill="#1D1D1B" opacity="0.22"/><circle cx="1377" cy="772" r="2.2" fill="#1D1D1B" opacity="0.22"/><circle cx="941" cy="646" r="1.5" fill="#1D1D1B" opacity="0.29"/><circle cx="1513" cy="608" r="2.6" fill="#1D1D1B" opacity="0.09"/><circle cx="777" cy="2" r="2.4" fill="#1D1D1B" opacity="0.16"/><circle cx="317" cy="175" r="1.1" fill="#1D1D1B" opacity="0.13"/><circle cx="866" cy="681" r="2.8" fill="#1D1D1B" opacity="0.23"/><circle cx="1503" cy="1036" r="1.2" fill="#1D1D1B" opacity="0.15"/><circle cx="619" cy="511" r="2.5" fill="#1D1D1B" opacity="0.21"/><circle cx="1033" cy="667" r="3.1" fill="#1D1D1B" opacity="0.14"/><circle cx="233" cy="10" r="2.4" fill="#1D1D1B" opacity="0.18"/><circle cx="429" cy="348" r="1.7" fill="#1D1D1B" opacity="0.26"/><circle cx="1336" cy="25" r="1.5" fill="#1D1D1B" opacity="0.27"/><circle cx="1403" cy="137" r="2.2" fill="#1D1D1B" opacity="0.27"/><circle cx="1134" cy="1096" r="2.6" fill="#1D1D1B" opacity="0.18"/><circle cx="81" cy="946" r="3.0" fill="#1D1D1B" opacity="0.21"/><circle cx="461" cy="998" r="1.5" fill="#1D1D1B" opacity="0.27"/><circle cx="493" cy="537" r="2.4" fill="#1D1D1B" opacity="0.16"/><circle cx="9" cy="20" r="1.2" fill="#1D1D1B" opacity="0.16"/><circle cx="1183" cy="389" r="2.6" fill="#1D1D1B" opacity="0.15"/><circle cx="1432" cy="536" r="1.8" fill="#1D1D1B" opacity="0.11"/><circle cx="910" cy="637" r="2.7" fill="#1D1D1B" opacity="0.12"/><circle cx="422" cy="549" r="2.2" fill="#1D1D1B" opacity="0.11"/><circle cx="1317" cy="210" r="1.2" fill="#1D1D1B" opacity="0.09"/><circle cx="699" cy="386" r="3.2" fill="#1D1D1B" opacity="0.18"/><circle cx="1777" cy="1186" r="3.3" fill="#1D1D1B" opacity="0.26"/><circle cx="81" cy="630" r="3.1" fill="#1D1D1B" opacity="0.18"/><circle cx="76" cy="1010" r="3.1" fill="#1D1D1B" opacity="0.13"/><circle cx="874" cy="1126" r="2.9" fill="#1D1D1B" opacity="0.15"/><circle cx="21" cy="776" r="1.7" fill="#1D1D1B" opacity="0.12"/><circle cx="1065" cy="768" r="1.3" fill="#1D1D1B" opacity="0.13"/><circle cx="544" cy="959" r="1.7" fill="#1D1D1B" opacity="0.29"/><circle cx="1404" cy="19" r="3.3" fill="#1D1D1B" opacity="0.10"/><circle cx="1239" cy="869" r="2.4" fill="#1D1D1B" opacity="0.17"/><circle cx="1448" cy="681" r="2.3" fill="#1D1D1B" opacity="0.24"/><circle cx="1605" cy="990" r="1.9" fill="#1D1D1B" opacity="0.29"/><circle cx="1619" cy="1072" r="1.8" fill="#1D1D1B" opacity="0.21"/><circle cx="1227" cy="35" r="2.9" fill="#1D1D1B" opacity="0.18"/><circle cx="1797" cy="668" r="2.3" fill="#1D1D1B" opacity="0.18"/><circle cx="1657" cy="1009" r="3.4" fill="#1D1D1B" opacity="0.30"/><circle cx="102" cy="482" r="1.7" fill="#1D1D1B" opacity="0.28"/><circle cx="1740" cy="982" r="3.0" fill="#1D1D1B" opacity="0.26"/><circle cx="1748" cy="767" r="2.6" fill="#1D1D1B" opacity="0.22"/><circle cx="1350" cy="617" r="3.0" fill="#1D1D1B" opacity="0.09"/><circle cx="1653" cy="594" r="1.2" fill="#1D1D1B" opacity="0.20"/><circle cx="623" cy="392" r="1.5" fill="#1D1D1B" opacity="0.14"/><circle cx="1512" cy="978" r="1.6" fill="#1D1D1B" opacity="0.28"/><circle cx="1542" cy="548" r="1.3" fill="#1D1D1B" opacity="0.27"/><circle cx="1301" cy="184" r="1.1" fill="#1D1D1B" opacity="0.28"/><circle cx="1421" cy="181" r="3.1" fill="#1D1D1B" opacity="0.09"/><circle cx="1566" cy="292" r="3.2" fill="#1D1D1B" opacity="0.16"/><circle cx="1091" cy="67" r="2.5" fill="#1D1D1B" opacity="0.27"/><circle cx="100" cy="145" r="1.3" fill="#1D1D1B" opacity="0.16"/><circle cx="223" cy="515" r="2.9" fill="#1D1D1B" opacity="0.24"/><circle cx="154" cy="1088" r="2.6" fill="#1D1D1B" opacity="0.19"/><circle cx="1574" cy="1193" r="1.1" fill="#1D1D1B" opacity="0.26"/><circle cx="1423" cy="526" r="1.6" fill="#1D1D1B" opacity="0.10"/><circle cx="1138" cy="1070" r="2.0" fill="#1D1D1B" opacity="0.22"/><circle cx="250" cy="579" r="1.4" fill="#1D1D1B" opacity="0.25"/><circle cx="771" cy="808" r="1.8" fill="#1D1D1B" opacity="0.13"/><circle cx="1090" cy="1109" r="2.8" fill="#1D1D1B" opacity="0.13"/><circle cx="1698" cy="116" r="1.8" fill="#1D1D1B" opacity="0.10"/><circle cx="533" cy="547" r="1.1" fill="#1D1D1B" opacity="0.23"/></g><g><path d="M0 86 Q 112 216 225 86 Q 338 -44 450 86 Q 562 216 675 86 Q 788 -44 900 86 Q 1012 216 1125 86 Q 1238 -44 1350 86 Q 1462 216 1575 86 Q 1688 -44 1800 86" fill="none" stroke="#CDC6BE" stroke-width="1.7" opacity="0.49"/><path d="M0 257 Q 112 386 225 257 Q 338 128 450 257 Q 562 386 675 257 Q 788 128 900 257 Q 1012 386 1125 257 Q 1238 128 1350 257 Q 1462 386 1575 257 Q 1688 128 1800 257" fill="none" stroke="#1D1D1B" stroke-width="2.3" opacity="0.63"/><path d="M0 375 Q 112 468 225 375 Q 338 282 450 375 Q 562 468 675 375 Q 788 282 900 375 Q 1012 468 1125 375 Q 1238 282 1350 375 Q 1462 468 1575 375 Q 1688 282 1800 375" fill="none" stroke="#CDC6BE" stroke-width="1.5" opacity="0.56"/><path d="M0 840 Q 112 904 225 840 Q 338 776 450 840 Q 562 904 675 840 Q 788 776 900 840 Q 1012 904 1125 840 Q 1238 776 1350 840 Q 1462 904 1575 840 Q 1688 776 1800 840" fill="none" stroke="#1D1D1B" stroke-width="2.6" opacity="0.59"/><path d="M0 1080 Q 112 1143 225 1080 Q 338 1017 450 1080 Q 562 1143 675 1080 Q 788 1017 900 1080 Q 1012 1143 1125 1080 Q 1238 1017 1350 1080 Q 1462 1143 1575 1080 Q 1688 1017 1800 1080" fill="none" stroke="#CDC6BE" stroke-width="2.9" opacity="0.73"/><path d="M0 1320 Q 112 1413 225 1320 Q 338 1227 450 1320 Q 562 1413 675 1320 Q 788 1227 900 1320 Q 1012 1413 1125 1320 Q 1238 1227 1350 1320 Q 1462 1413 1575 1320 Q 1688 1227 1800 1320" fill="none" stroke="#1D1D1B" stroke-width="3.2" opacity="0.68"/><path d="M0 867 Q 112 950 225 867 Q 338 783 450 867 Q 562 950 675 867 Q 788 783 900 867 Q 1012 950 1125 867 Q 1238 783 1350 867 Q 1462 950 1575 867 Q 1688 783 1800 867" fill="none" stroke="#CDC6BE" stroke-width="2.5" opacity="0.49"/></g><rect x="1" y="1" width="1798" height="1198" fill="none" stroke="#1D1D1B" stroke-width="2" opacity="0.5"/></svg>