<svg xmlns="http://www.w3.org/2000/svg" viewBox="0 0 1800 1200" width="1800" height="1200"><rect width="1800" height="1200" fill="#DCD5C9"/><g><circle cx="1403" cy="872" r="1.4" fill="#1D1D1B" opacity="0.24"/><circle cx="747" cy="509" r="1.8" fill="#1D1D1B" opacity="0.20"/><circle cx="1794" cy="375" r="2.4" fill="#1D1D1B" opacity="0.27"/><circle cx="1315" cy="18" r="2.5" fill="#1D1D1B" opacity="0.29"/><circle cx="952" cy="634" r="3.1" fill="#1D1D1B" opacity="0.16"/><circle cx="538" cy="408" r="2.4" fill="#1D1D1B" opacity="0.27"/><circle cx="1237" cy="13" r="2.8" fill="#1D1D1B" opacity="0.10"/><circle cx="1641" cy="692" r="2.8" fill="#1D1D1B" opacity="0.29"/><circle cx="1017" cy="331" r="2.8" fill="#1D1D1B" opacity="0.15"/><circle cx="1627" cy="194" r="1.2" fill="#1D1D1B" opacity="0.23"/><circle cx="757" cy="280" r="2.1" fill="#1D1D1B" opacity="0.09"/><circle cx="1018" cy="784" r="1.6" fill="#1D1D1B" opacity="0.11"/><circle cx="970" cy="465" r="2.5" fill="#1D1D1B" opacity="0.30"/><circle cx="297" cy="810" r="1.9" fill="#1D1D1B" opacity="0.22"/><circle cx="1367" cy="920" r="1.5" fill="#1D1D1B" opacity="0.26"/><circle cx="1005" cy="208" r="3.0" fill="#1D1D1B" opacity="0.27"/><circle cx="1393" cy="666" r="1.3" fill="#1D1D1B" opacity="0.26"/><circle cx="1678" cy="1110" r="1.2" fill="#1D1D1B" opacity="0.30"/><circle cx="1182" cy="407" r="2.9" fill="#1D1D1B" opacity="0.27"/><circle cx="1024" cy="1044" r="2.6" fill="#1D1D1B" opacity="0.14"/><circle cx="41" cy="361" r="2.0" fill="#1D1D1B" opacity="0.27"/><circle cx="1534" cy="935" r="2.7" fill="#1D1D1B" opacity="0.29"/><circle cx="596" cy="407" r="3.1" fill="#1D1D1B" opacity="0.10"/><circle cx="3" cy="520" r="1.2" fill="#1D1D1B" opacity="0.24"/><circle cx="530" cy="977" r="1.0" fill="#1D1D1B" opacity="0.23"/><circle cx="873" cy="172" r="3.3" fill="#1D1D1B" opacity="0.30"/><circle cx="285" cy="997" r="3.1" fill="#1D1D1B" opacity="0.18"/><circle cx="1243" cy="257" r="2.6" fill="#1D1D1B" opacity="0.10"/><circle cx="1434" cy="499" r="2.1" fill="#1D1D1B" opacity="0.21"/><circle cx="866" cy="639" r="2.7" fill="#1D1D1B" opacity="0.14"/><circle cx="661" cy="384" r="2.3" fill="#1D1D1B" opacity="0.09"/><circle cx="796" cy="262" r="2.8" fill="#1D1D1B" opacity="0.09"/><circle cx="828" cy="813" r="2.9" fill="#1D1D1B" opacity="0.13"/><circle cx="1792" cy="1100" r="2.3" fill="#1D1D1B" opacity="0.23"/><circle cx="781" cy="1071" r="1.9" fill="#1D1D1B" opacity="0.08"/><circle cx="805" cy="20" r="2.5" fill="#1D1D1B" opacity="0.21"/><circle cx="583" cy="148" r="2.9" fill="#1D1D1B" opacity="0.25"/><circle cx="95" cy="135" r="1.8" fill="#1D1D1B" opacity="0.15"/><circle cx="594" cy="573" r="2.8" fill="#1D1D1B" opacity="0.21"/><circle cx="267" cy="1143" r="2.9" fill="#1D1D1B" opacity="0.10"/><circle cx="162" cy="459" r="2.2" fill="#1D1D1B" opacity="0.15"/><circle cx="400" cy="373" r="1.2" fill="#1D1D1B" opacity="0.19"/><circle cx="821" cy="366" r="1.7" fill="#1D1D1B" opacity="0.29"/><circle cx="1162" cy="235" r="1.1" fill="#1D1D1B" opacity="0.21"/><circle cx="11" cy="140" r="1.1" fill="#1D1D1B" opacity="0.29"/><circle cx="1231" cy="773" r="2.0" fill="#1D1D1B" opacity="0.17"/><circle cx="573" cy="266" r="2.2" fill="#1D1D1B" opacity="0.13"/><circle cx="1141" cy="36" r="2.1" fill="#1D1D1B" opacity="0.12"/><circle cx="1233" cy="958" r="3.3" fill="#1D1D1B" opacity="0.15"/><circle cx="898" cy="824" r="2.7" fill="#1D1D1B" opacity="0.12"/><circle cx="165" cy="624" r="1.1" fill="#1D1D1B" opacity="0.09"/><circle cx="1237" cy="892" r="2.5" fill="#1D1D1B" opacity="0.11"/><circle cx="297" cy="1165" r="3.4" fill="#1D1D1B" opacity="0.20"/><circle cx="1137" cy="714" r="1.1" fill="#1D1D1B" opacity="0.13"/><circle cx="383" cy="628" r="1.2" fill="#1D1D1B" opacity="0.19"/><circle cx="1460" cy="1180" r="1.1" fill="#1D1D1B" opacity="0.19"/><circle cx="388" cy="907" r="2.4" fill="#1D1D1B" opacity="0.16"/><circle cx="1646" cy="1032" r="2.8" fill="#1D1D1B" opacity="0.15"/><circle cx="778" cy="569" r="1.1" fill="#1D1D1B" opacity="0.26"/><circle cx="224" cy="976" r="2.1" fill="#1D1D1B" opacity="0.22"/><circle cx="401" cy="735" r="3.3" fill="#1D1D1B" opacity="0.25"/><circle cx="1235" cy="571" r="1.2" fill="#1D1D1B" opacity="0.28"/><circle cx="666" cy="449" r="1.3" fill="#1D1D1B" opacity="0.20"/><circle cx="1170" cy="456" r="2.9" fill="#1D1D1B" opacity="0.24"/><circle cx="1360" cy="479" r="1.0" fill="#1D1D1B" opacity="0.18"/><circle cx="369" cy="554" r="1.3" fill="#1D1D1B" opacity="0.11"/><circle cx="1608" cy="695" r="2.0" fill="#1D1D1B" opacity="0.11"/><circle cx="96" cy="551" r="1.2" fill="#1D1D1B" opacity="0.29"/><circle cx="1299" cy="338" r="1.5" fill="#1D1D1B" opacity="0.19"/><circle cx="187" cy="81" r="1.1" fill="#1D1D1B" opacity="0.19"/><circle cx="1253" cy="209" r="2.0" fill="#1D1D1B" opacity="0.28"/><circle cx="247" cy="692" r="1.2" fill="#1D1D1B" opacity="0.19"/><circle cx="1131" cy="698" r="2.3" fill="#1D1D1B" opacity="0.27"/><circle cx="101" cy="686" r="2.5" fill="#1D1D1B" opacity="0.20"/><circle cx="951" cy="856" r="2.8" fill="#1D1D1B" opacity="0.25"/><circle cx="851" cy="313" r="1.4" fill="#1D1D1B" opacity="0.21"/><circle cx="1020" cy="1123" r="3.0" fill="#1D1D1B" opacity="0.13"/><circle cx="787" cy="131" r="1.5" fill="#1D1D1B" opacity="0.09"/><circle cx="1492" cy="952" r="1.2" fill="#1D1D1B" opacity="0.19"/><circle cx="303" cy="907" r="1.8" fill="#1D1D1B" opacity="0.17"/><circle cx="1488" cy="901" r="1.2" fill="#1D1D1B" opacity="0.15"/><circle cx="1" cy="596" r="2.6" fill="#1D1D1B" opacity="0.14"/><circle cx="404" cy="557" r="3.0" fill="#1D1D1B" opacity="0.08"/><circle cx="1642" cy="566" r="2.6" fill="#1D1D1B" opacity="0.18"/><circle cx="428" cy="703" r="2.0" fill="#1D1D1B" opacity="0.15"/><circle cx="824" cy="383" r="2.6" fill="#1D1D1B" opacity="0.26"/><circle cx="1229" cy="735" r="1.7" fill="#1D1D1B" opacity="0.17"/><circle cx="869" cy="89" r="2.9" fill="#1D1D1B" opacity="0.12"/><circle cx="197" cy="399" r="2.3" fill="#1D1D1B" opacity="0.19"/><circle cx="470" cy="657" r="1.3" fill="#1D1D1B" opacity="0.18"/></g><g><path d="M0 100 Q 112 202 225 100 Q 338 -2 450 100 Q 562 202 675 100 Q 788 -2 900 100 Q 1012 202 1125 100 Q 1238 -2 1350 100 Q 1462 202 1575 100 Q 1688 -2 1800 100" fill="none" stroke="#CDC6BE" stroke-width="1.9" opacity="0.51"/><path d="M0 360 Q 112 400 225 360 Q 338 320 450 360 Q 562 400 675 360 Q 788 320 900 360 Q 1012 400 1125 360 Q 1238 320 1350 360 Q 1462 400 1575 360 Q 1688 320 1800 360" fill="none" stroke="#1D1D1B" stroke-width="2.0" opacity="0.69"/><path d="M0 600 Q 112 656 225 600 Q 338 544 450 600 Q 562 656 675 600 Q 788 544 900 600 Q 1012 656 1125 600 Q 1238 544 1350 600 Q 1462 656 1575 600 Q 1688 544 1800 600" fill="none" stroke="#CDC6BE" stroke-width="2.7" opacity="0.84"/><path d="M0 840 Q 112 900 225 840 Q 338 780 450 840 Q 562 900 675 840 Q 788 780 900 840 Q 1012 900 1125 840 Q 1238 780 1350 840 Q 1462 900 1575 840 Q 1688 780 1800 840" fill="none" stroke="#1D1D1B" stroke-width="3.3" opacity="0.55"/><path d="M0 900 Q 112 1046 225 900 Q 338 754 450 900 Q 562 1046 675 900 Q 788 754 900 900 Q 1012 1046 1125 900 Q 1238 754 1350 900 Q 1462 1046 1575 900 Q 1688 754 1800 900" fill="none" stroke="#CDC6BE" stroke-width="1.1" opacity="0.77"/><path d="M0 825 Q 112 935 225 825 Q 338 715 450 825 Q 562 935 675 825 Q 788 715 900 825 Q 1012 935 1125 825 Q 1238 715 1350 825 Q 1462 935 1575 825 Q 1688 715 1800 825" fill="none" stroke="#1D1D1B" stroke-width="2.1" opacity="0.67"/><path d="M0 975 Q 112 1103 225 975 Q 338 847 450 975 Q 562 1103 675 975 Q 788 847 900 975 Q 1012 1103 1125 975 Q 1238 847 1350 975 Q 1462 1103 1575 975 Q 1688 847 1800 975" fill="none" stroke="#CDC6BE" stroke-width="2.8" opacity="0.42"/></g><rect x="1" y="1" width="1798" height="1198" fill="none" stroke="#1D1D1B" stroke-width="2" opacity="0.5"/></svg>