<svg xmlns="http://www.w3.org/2000/svg" viewBox="0 0 1200 840" width="1200" height="840"><rect width="1200" height="840" fill="#DCD5C9"/><g><circle cx="148" cy="570" r="3.1" fill="#1D1D1B" opacity="0.09"/><circle cx="652" cy="97" r="2.5" fill="#1D1D1B" opacity="0.29"/><circle cx="929" cy="341" r="2.8" fill="#1D1D1B" opacity="0.12"/><circle cx="236" cy="71" r="3.0" fill="#1D1D1B" opacity="0.20"/><circle cx="163" cy="812" r="2.8" fill="#1D1D1B" opacity="0.27"/><circle cx="681" cy="769" r="1.7" fill="#1D1D1B" opacity="0.10"/><circle cx="598" cy="535" r="1.8" fill="#1D1D1B" opacity="0.13"/><circle cx="345" cy="375" r="3.2" fill="#1D1D1B" opacity="0.12"/><circle cx="222" cy="573" r="2.5" fill="#1D1D1B" opacity="0.15"/><circle cx="570" cy="720" r="1.3" fill="#1D1D1B" opacity="0.28"/><circle cx="280" cy="727" r="1.5" fill="#1D1D1B" opacity="0.21"/><circle cx="419" cy="794" r="1.0" fill="#1D1D1B" opacity="0.28"/><circle cx="161" cy="668" r="2.4" fill="#1D1D1B" opacity="0.12"/><circle cx="372" cy="681" r="2.6" fill="#1D1D1B" opacity="0.15"/><circle cx="245" cy="672" r="2.1" fill="#1D1D1B" opacity="0.15"/><circle cx="372" cy="316" r="1.2" fill="#1D1D1B" opacity="0.12"/><circle cx="1198" cy="313" r="1.5" fill="#1D1D1B" opacity="0.20"/><circle cx="296" cy="539" r="2.9" fill="#1D1D1B" opacity="0.25"/><circle cx="436" cy="480" r="1.9" fill="#1D1D1B" opacity="0.09"/><circle cx="384" cy="745" r="3.3" fill="#1D1D1B" opacity="0.10"/><circle cx="251" cy="47" r="1.6" fill="#1D1D1B" opacity="0.09"/><circle cx="155" cy="366" r="1.5" fill="#1D1D1B" opacity="0.28"/><circle cx="724" cy="555" r="2.5" fill="#1D1D1B" opacity="0.29"/><circle cx="1023" cy="711" r="3.4" fill="#1D1D1B" opacity="0.15"/><circle cx="719" cy="451" r="1.3" fill="#1D1D1B" opacity="0.25"/><circle cx="480" cy="8" r="1.9" fill="#1D1D1B" opacity="0.28"/><circle cx="1144" cy="737" r="2.7" fill="#1D1D1B" opacity="0.16"/><circle cx="515" cy="481" r="3.3" fill="#1D1D1B" opacity="0.08"/><circle cx="761" cy="311" r="1.7" fill="#1D1D1B" opacity="0.25"/><circle cx="280" cy="426" r="2.9" fill="#1D1D1B" opacity="0.12"/><circle cx="1132" cy="147" r="1.3" fill="#1D1D1B" opacity="0.27"/><circle cx="93" cy="611" r="2.0" fill="#1D1D1B" opacity="0.15"/><circle cx="667" cy="148" r="2.5" fill="#1D1D1B" opacity="0.28"/><circle cx="454" cy="691" r="2.4" fill="#1D1D1B" opacity="0.19"/><circle cx="174" cy="574" r="2.2" fill="#1D1D1B" opacity="0.30"/><circle cx="979" cy="717" r="2.4" fill="#1D1D1B" opacity="0.18"/><circle cx="879" cy="178" r="2.2" fill="#1D1D1B" opacity="0.16"/><circle cx="647" cy="502" r="2.6" fill="#1D1D1B" opacity="0.16"/><circle cx="639" cy="631" r="2.3" fill="#1D1D1B" opacity="0.29"/><circle cx="828" cy="239" r="2.4" fill="#1D1D1B" opacity="0.15"/><circle cx="563" cy="630" r="3.0" fill="#1D1D1B" opacity="0.18"/><circle cx="155" cy="67" r="2.3" fill="#1D1D1B" opacity="0.13"/><circle cx="90" cy="376" r="1.4" fill="#1D1D1B" opacity="0.25"/><circle cx="857" cy="398" r="3.2" fill="#1D1D1B" opacity="0.23"/><circle cx="877" cy="465" r="2.6" fill="#1D1D1B" opacity="0.13"/><circle cx="155" cy="355" r="3.1" fill="#1D1D1B" opacity="0.15"/><circle cx="380" cy="532" r="1.8" fill="#1D1D1B" opacity="0.26"/><circle cx="358" cy="395" r="2.3" fill="#1D1D1B" opacity="0.09"/><circle cx="659" cy="206" r="1.4" fill="#1D1D1B" opacity="0.23"/><circle cx="805" cy="384" r="1.6" fill="#1D1D1B" opacity="0.16"/><circle cx="1163" cy="646" r="1.1" fill="#1D1D1B" opacity="0.16"/><circle cx="1022" cy="421" r="2.9" fill="#1D1D1B" opacity="0.26"/><circle cx="270" cy="393" r="2.5" fill="#1D1D1B" opacity="0.22"/><circle cx="1197" cy="696" r="3.2" fill="#1D1D1B" opacity="0.11"/><circle cx="209" cy="706" r="3.2" fill="#1D1D1B" opacity="0.13"/><circle cx="1174" cy="416" r="2.8" fill="#1D1D1B" opacity="0.14"/><circle cx="810" cy="510" r="2.1" fill="#1D1D1B" opacity="0.08"/><circle cx="930" cy="62" r="3.1" fill="#1D1D1B" opacity="0.19"/><circle cx="506" cy="456" r="2.6" fill="#1D1D1B" opacity="0.30"/><circle cx="776" cy="379" r="1.2" fill="#1D1D1B" opacity="0.23"/><circle cx="399" cy="415" r="1.8" fill="#1D1D1B" opacity="0.14"/><circle cx="583" cy="826" r="1.6" fill="#1D1D1B" opacity="0.13"/><circle cx="706" cy="788" r="3.2" fill="#1D1D1B" opacity="0.18"/><circle cx="621" cy="692" r="1.5" fill="#1D1D1B" opacity="0.11"/><circle cx="848" cy="55" r="2.2" fill="#1D1D1B" opacity="0.29"/><circle cx="1108" cy="682" r="1.4" fill="#1D1D1B" opacity="0.28"/><circle cx="606" cy="522" r="2.9" fill="#1D1D1B" opacity="0.28"/><circle cx="1172" cy="305" r="2.2" fill="#1D1D1B" opacity="0.17"/><circle cx="61" cy="380" r="1.4" fill="#1D1D1B" opacity="0.17"/><circle cx="1042" cy="717" r="3.1" fill="#1D1D1B" opacity="0.23"/><circle cx="437" cy="524" r="2.6" fill="#1D1D1B" opacity="0.27"/><circle cx="1078" cy="717" r="3.0" fill="#1D1D1B" opacity="0.09"/><circle cx="408" cy="472" r="2.4" fill="#1D1D1B" opacity="0.24"/><circle cx="1017" cy="5" r="3.3" fill="#1D1D1B" opacity="0.12"/><circle cx="475" cy="399" r="1.9" fill="#1D1D1B" opacity="0.17"/><circle cx="516" cy="776" r="2.3" fill="#1D1D1B" opacity="0.08"/><circle cx="1081" cy="692" r="2.6" fill="#1D1D1B" opacity="0.18"/><circle cx="933" cy="333" r="2.4" fill="#1D1D1B" opacity="0.18"/><circle cx="146" cy="445" r="2.0" fill="#1D1D1B" opacity="0.28"/><circle cx="1020" cy="137" r="3.4" fill="#1D1D1B" opacity="0.16"/><circle cx="514" cy="621" r="2.2" fill="#1D1D1B" opacity="0.28"/><circle cx="298" cy="347" r="2.1" fill="#1D1D1B" opacity="0.09"/><circle cx="430" cy="414" r="1.4" fill="#1D1D1B" opacity="0.29"/><circle cx="346" cy="245" r="1.1" fill="#1D1D1B" opacity="0.08"/><circle cx="781" cy="765" r="2.9" fill="#1D1D1B" opacity="0.23"/><circle cx="583" cy="660" r="1.4" fill="#1D1D1B" opacity="0.23"/><circle cx="665" cy="475" r="2.7" fill="#1D1D1B" opacity="0.23"/><circle cx="780" cy="499" r="2.9" fill="#1D1D1B" opacity="0.27"/><circle cx="534" cy="714" r="1.3" fill="#1D1D1B" opacity="0.27"/><circle cx="804" cy="76" r="2.0" fill="#1D1D1B" opacity="0.29"/></g><g><path d="M0 47 Q 75 101 150 47 Q 225 -7 300 47 Q 375 101 450 47 Q 525 -7 600 47 Q 675 101 750 47 Q 825 -7 900 47 Q 975 101 1050 47 Q 1125 -7 1200 47" fill="none" stroke="#CDC6BE" stroke-width="2.8" opacity="0.74"/><path d="M0 210 Q 75 299 150 210 Q 225 121 300 210 Q 375 299 450 210 Q 525 121 600 210 Q 675 299 750 210 Q 825 121 900 210 Q 975 299 1050 210 Q 1125 121 1200 210" fill="none" stroke="#1D1D1B" stroke-width="2.7" opacity="0.60"/><path d="M0 233 Q 75 338 150 233 Q 225 128 300 233 Q 375 338 450 233 Q 525 128 600 233 Q 675 338 750 233 Q 825 128 900 233 Q 975 338 1050 233 Q 1125 128 1200 233" fill="none" stroke="#CDC6BE" stroke-width="2.1" opacity="0.79"/><path d="M0 490 Q 75 552 150 490 Q 225 428 300 490 Q 375 552 450 490 Q 525 428 600 490 Q 675 552 750 490 Q 825 428 900 490 Q 975 552 1050 490 Q 1125 428 1200 490" fill="none" stroke="#1D1D1B" stroke-width="1.7" opacity="0.66"/><path d="M0 540 Q 75 601 150 540 Q 225 479 300 540 Q 375 601 450 540 Q 525 479 600 540 Q 675 601 750 540 Q 825 479 900 540 Q 975 601 1050 540 Q 1125 479 1200 540" fill="none" stroke="#CDC6BE" stroke-width="2.4" opacity="0.57"/><path d="M0 660 Q 75 686 150 660 Q 225 634 300 660 Q 375 686 450 660 Q 525 634 600 660 Q 675 686 750 660 Q 825 634 900 660 Q 975 686 1050 660 Q 1125 634 1200 660" fill="none" stroke="#1D1D1B" stroke-width="3.1" opacity="0.61"/><path d="M0 607 Q 75 701 150 607 Q 225 512 300 607 Q 375 701 450 607 Q 525 512 600 607 Q 675 701 750 607 Q 825 512 900 607 Q 975 701 1050 607 Q 1125 512 1200 607" fill="none" stroke="#CDC6BE" stroke-width="1.9" opacity="0.52"/><path d="M0 788 Q 75 864 150 788 Q 225 711 300 788 Q 375 864 450 788 Q 525 711 600 788 Q 675 864 750 788 Q 825 711 900 788 Q 975 864 1050 788 Q 1125 711 1200 788" fill="none" stroke="#1D1D1B" stroke-width="1.1" opacity="0.88"/><path d="M0 793 Q 75 865 150 793 Q 225 722 300 793 Q 375 865 450 793 Q 525 722 600 793 Q 675 865 750 793 Q 825 722 900 793 Q 975 865 1050 793 Q 1125 722 1200 793" fill="none" stroke="#CDC6BE" stroke-width="2.4" opacity="0.75"/></g><rect x="1" y="1" width="1198" height="838" fill="none" stroke="#1D1D1B" stroke-width="2" opacity="0.5"/></svg>