<svg xmlns="http://www.w3.org/2000/svg" viewBox="0 0 1800 1200" width="1800" height="1200"><rect width="1800" height="1200" fill="#E8E3DA"/><g><circle cx="749" cy="739" r="2.8" fill="#1D1D1B" opacity="0.29"/><circle cx="977" cy="685" r="1.9" fill="#1D1D1B" opacity="0.23"/><circle cx="1769" cy="701" r="2.5" fill="#1D1D1B" opacity="0.16"/><circle cx="77" cy="458" r="1.2" fill="#1D1D1B" opacity="0.27"/><circle cx="83" cy="562" r="2.7" fill="#1D1D1B" opacity="0.16"/><circle cx="1169" cy="179" r="1.9" fill="#1D1D1B" opacity="0.24"/><circle cx="25" cy="118" r="2.9" fill="#1D1D1B" opacity="0.28"/><circle cx="962" cy="99" r="2.1" fill="#1D1D1B" opacity="0.08"/><circle cx="1075" cy="24" r="1.0" fill="#1D1D1B" opacity="0.26"/><circle cx="655" cy="589" r="3.4" fill="#1D1D1B" opacity="0.29"/><circle cx="245" cy="657" r="2.3" fill="#1D1D1B" opacity="0.28"/><circle cx="548" cy="985" r="1.6" fill="#1D1D1B" opacity="0.30"/><circle cx="1043" cy="684" r="2.7" fill="#1D1D1B" opacity="0.23"/><circle cx="1795" cy="647" r="2.9" fill="#1D1D1B" opacity="0.30"/><circle cx="29" cy="751" r="3.1" fill="#1D1D1B" opacity="0.27"/><circle cx="1503" cy="1148" r="1.7" fill="#1D1D1B" opacity="0.30"/><circle cx="1570" cy="418" r="3.2" fill="#1D1D1B" opacity="0.21"/><circle cx="344" cy="996" r="1.3" fill="#1D1D1B" opacity="0.25"/><circle cx="21" cy="27" r="3.0" fill="#1D1D1B" opacity="0.14"/><circle cx="626" cy="848" r="1.2" fill="#1D1D1B" opacity="0.15"/><circle cx="253" cy="767" r="2.4" fill="#1D1D1B" opacity="0.27"/><circle cx="869" cy="294" r="2.0" fill="#1D1D1B" opacity="0.25"/><circle cx="627" cy="818" r="1.5" fill="#1D1D1B" opacity="0.10"/><circle cx="1481" cy="121" r="2.6" fill="#1D1D1B" opacity="0.20"/><circle cx="1727" cy="553" r="2.3" fill="#1D1D1B" opacity="0.09"/><circle cx="1348" cy="1077" r="3.0" fill="#1D1D1B" opacity="0.10"/><circle cx="311" cy="448" r="1.6" fill="#1D1D1B" opacity="0.24"/><circle cx="1441" cy="826" r="3.2" fill="#1D1D1B" opacity="0.13"/><circle cx="190" cy="799" r="1.3" fill="#1D1D1B" opacity="0.19"/><circle cx="1337" cy="991" r="2.9" fill="#1D1D1B" opacity="0.09"/><circle cx="1080" cy="1088" r="3.3" fill="#1D1D1B" opacity="0.23"/><circle cx="922" cy="930" r="2.7" fill="#1D1D1B" opacity="0.26"/><circle cx="691" cy="1063" r="3.4" fill="#1D1D1B" opacity="0.18"/><circle cx="174" cy="629" r="1.4" fill="#1D1D1B" opacity="0.11"/><circle cx="286" cy="1005" r="3.3" fill="#1D1D1B" opacity="0.16"/><circle cx="270" cy="1190" r="2.0" fill="#1D1D1B" opacity="0.22"/><circle cx="1293" cy="761" r="1.4" fill="#1D1D1B" opacity="0.23"/><circle cx="165" cy="1068" r="2.6" fill="#1D1D1B" opacity="0.09"/><circle cx="1376" cy="288" r="1.8" fill="#1D1D1B" opacity="0.14"/><circle cx="1412" cy="231" r="1.8" fill="#1D1D1B" opacity="0.15"/><circle cx="404" cy="101" r="2.3" fill="#1D1D1B" opacity="0.14"/><circle cx="1126" cy="355" r="1.2" fill="#1D1D1B" opacity="0.22"/><circle cx="293" cy="796" r="2.3" fill="#1D1D1B" opacity="0.24"/><circle cx="729" cy="94" r="1.5" fill="#1D1D1B" opacity="0.28"/><circle cx="1473" cy="1022" r="2.0" fill="#1D1D1B" opacity="0.08"/><circle cx="1186" cy="746" r="3.3" fill="#1D1D1B" opacity="0.22"/><circle cx="811" cy="519" r="3.0" fill="#1D1D1B" opacity="0.11"/><circle cx="1495" cy="465" r="1.1" fill="#1D1D1B" opacity="0.19"/><circle cx="1448" cy="644" r="2.6" fill="#1D1D1B" opacity="0.16"/><circle cx="592" cy="662" r="1.8" fill="#1D1D1B" opacity="0.12"/><circle cx="738" cy="721" r="1.5" fill="#1D1D1B" opacity="0.28"/><circle cx="1303" cy="1031" r="2.1" fill="#1D1D1B" opacity="0.29"/><circle cx="1776" cy="82" r="1.3" fill="#1D1D1B" opacity="0.21"/><circle cx="856" cy="822" r="2.5" fill="#1D1D1B" opacity="0.25"/><circle cx="1491" cy="958" r="2.2" fill="#1D1D1B" opacity="0.24"/><circle cx="1123" cy="451" r="1.6" fill="#1D1D1B" opacity="0.20"/><circle cx="814" cy="140" r="3.3" fill="#1D1D1B" opacity="0.09"/><circle cx="1551" cy="470" r="3.1" fill="#1D1D1B" opacity="0.11"/><circle cx="434" cy="636" r="2.8" fill="#1D1D1B" opacity="0.10"/><circle cx="1254" cy="739" r="2.8" fill="#1D1D1B" opacity="0.26"/><circle cx="707" cy="199" r="1.3" fill="#1D1D1B" opacity="0.14"/><circle cx="749" cy="346" r="1.8" fill="#1D1D1B" opacity="0.20"/><circle cx="940" cy="1001" r="1.4" fill="#1D1D1B" opacity="0.20"/><circle cx="1479" cy="94" r="2.9" fill="#1D1D1B" opacity="0.23"/><circle cx="733" cy="476" r="1.8" fill="#1D1D1B" opacity="0.18"/><circle cx="1482" cy="42" r="3.3" fill="#1D1D1B" opacity="0.28"/><circle cx="3" cy="346" r="1.4" fill="#1D1D1B" opacity="0.23"/><circle cx="984" cy="456" r="2.9" fill="#1D1D1B" opacity="0.08"/><circle cx="1613" cy="589" r="2.9" fill="#1D1D1B" opacity="0.25"/><circle cx="226" cy="438" r="1.9" fill="#1D1D1B" opacity="0.10"/><circle cx="196" cy="827" r="1.6" fill="#1D1D1B" opacity="0.10"/><circle cx="674" cy="140" r="2.9" fill="#1D1D1B" opacity="0.16"/><circle cx="1001" cy="1081" r="2.0" fill="#1D1D1B" opacity="0.09"/><circle cx="462" cy="152" r="1.8" fill="#1D1D1B" opacity="0.13"/><circle cx="1088" cy="120" r="1.9" fill="#1D1D1B" opacity="0.20"/><circle cx="1299" cy="396" r="1.3" fill="#1D1D1B" opacity="0.17"/><circle cx="1528" cy="349" r="3.4" fill="#1D1D1B" opacity="0.23"/><circle cx="1657" cy="129" r="2.9" fill="#1D1D1B" opacity="0.23"/><circle cx="1702" cy="1055" r="1.3" fill="#1D1D1B" opacity="0.26"/><circle cx="1183" cy="545" r="2.2" fill="#1D1D1B" opacity="0.13"/><circle cx="1602" cy="893" r="2.6" fill="#1D1D1B" opacity="0.19"/><circle cx="895" cy="1095" r="3.3" fill="#1D1D1B" opacity="0.27"/><circle cx="1784" cy="625" r="2.0" fill="#1D1D1B" opacity="0.13"/><circle cx="284" cy="702" r="2.5" fill="#1D1D1B" opacity="0.19"/><circle cx="1068" cy="274" r="1.0" fill="#1D1D1B" opacity="0.30"/><circle cx="246" cy="608" r="3.1" fill="#1D1D1B" opacity="0.18"/><circle cx="1301" cy="219" r="1.6" fill="#1D1D1B" opacity="0.10"/><circle cx="81" cy="937" r="1.5" fill="#1D1D1B" opacity="0.12"/><circle cx="743" cy="870" r="1.8" fill="#1D1D1B" opacity="0.11"/><circle cx="599" cy="834" r="3.3" fill="#1D1D1B" opacity="0.12"/></g><g><ellipse cx="1068" cy="700" rx="608" ry="164" fill="none" stroke="#CDC6BE" stroke-width="1.2" opacity="0.50" transform="rotate(17 1068 700)"/><ellipse cx="1068" cy="700" rx="331" ry="99" fill="none" stroke="#1D1D1B" stroke-width="1.8" opacity="0.87" transform="rotate(150 1068 700)"/><ellipse cx="1068" cy="700" rx="207" ry="35" fill="none" stroke="#1D1D1B" stroke-width="1.5" opacity="0.58" transform="rotate(94 1068 700)"/><ellipse cx="1068" cy="700" rx="456" ry="70" fill="none" stroke="#CDC6BE" stroke-width="1.7" opacity="0.44" transform="rotate(101 1068 700)"/><ellipse cx="1068" cy="700" rx="748" ry="218" fill="none" stroke="#1D1D1B" stroke-width="1.9" opacity="0.73" transform="rotate(27 1068 700)"/><ellipse cx="1068" cy="700" rx="172" ry="33" fill="none" stroke="#1D1D1B" stroke-width="1.2" opacity="0.59" transform="rotate(2 1068 700)"/><ellipse cx="1068" cy="700" rx="587" ry="133" fill="none" stroke="#CDC6BE" stroke-width="0.9" opacity="0.50" transform="rotate(175 1068 700)"/><ellipse cx="1068" cy="700" rx="98" ry="54" fill="none" stroke="#1D1D1B" stroke-width="1.2" opacity="0.80" transform="rotate(141 1068 700)"/><circle cx="1068" cy="700" r="16" fill="#1D1D1B"/></g><rect x="1" y="1" width="1798" height="1198" fill="none" stroke="#1D1D1B" stroke-width="2" opacity="0.5"/></svg>